<?xml version="1.0" encoding="utf-8"?>
<!-- Generator: Adobe Illustrator 22.1.0, SVG Export Plug-In . SVG Version: 6.00 Build 0)  -->
<svg version="1.1" id="Layer_1" xmlns="http://www.w3.org/2000/svg" xmlns:xlink="http://www.w3.org/1999/xlink" x="0px" y="0px"
	 viewBox="0 0 564.4 157" style="enable-background:new 0 0 564.4 157;" xml:space="preserve">
<style type="text/css">
	.st0{fill:#005CB9;}
</style>
<g>
	<path class="st0" d="M184.4,145.5h-5.1v-2.1h7.3v12.1c-2.2,1.1-4.4,1.5-6.8,1.5c-6.9,0-11.1-5.1-11.1-12.6
		c0-7.4,4.3-12.6,11.1-12.6c1.7,0,4.4,0.3,5.9,1.2l-0.3,2.2c-1.7-1-3.7-1.3-5.6-1.3c-5.7,0-8.9,4.5-8.9,10.5
		c0,6.1,3.1,10.5,8.9,10.5c1.4,0,3.6-0.2,4.7-0.9L184.4,145.5L184.4,145.5z"/>
	<polygon class="st0" points="195.9,132.2 206.7,132.2 206.7,134.3 198.1,134.3 198.1,143 206.3,143 206.3,145.1 198.1,145.1 
		198.1,154.5 207.1,154.5 207.1,156.6 195.9,156.6 	"/>
	<path class="st0" d="M214.9,153.5c1.3,0.9,2.8,1.4,4.9,1.4c2.7,0,4.9-1.5,4.9-5c0-4.8-10.1-5.4-10.1-11.8c0-3.9,3.1-6.4,7-6.4
		c1.1,0,2.8,0.2,4.3,0.8l-0.4,2.2c-1-0.6-2.5-0.9-4-0.9c-2.3,0-4.8,1-4.8,4.2c0,4.9,10.1,4.9,10.1,12.1c0,4.9-3.8,6.9-7.2,6.9
		c-2.2,0-3.8-0.5-5-1L214.9,153.5z"/>
	<polygon class="st0" points="239.5,134.3 233,134.3 233,132.2 248.2,132.2 248.2,134.3 241.7,134.3 241.7,156.6 239.5,156.6 	"/>
	<rect x="255.2" y="132.2" class="st0" width="2.2" height="24.4"/>
	<path class="st0" d="M275.4,131.8c6.6,0,9.7,6,9.7,12.6c-0.1,7.5-3.3,12.6-9.7,12.6c-6.3,0-9.6-5.1-9.7-12.6
		C265.7,137.8,268.8,131.8,275.4,131.8 M267.9,144.4c0,5.2,2.3,10.5,7.5,10.5c5.2,0,7.5-5.4,7.5-10.5c0-5.2-2.3-10.5-7.5-10.5
		C270.3,133.9,267.9,139.2,267.9,144.4 M276.5,126.2h2.5l-4,5h-1.4L276.5,126.2z"/>
	<polygon class="st0" points="293.5,132.2 296.2,132.2 307.4,153.7 307.5,153.7 307.5,132.2 309.6,132.2 309.6,156.6 306.7,156.6 
		295.7,135.6 295.6,135.6 295.6,156.6 293.5,156.6 	"/>
	<rect x="330.1" y="132.2" class="st0" width="2.2" height="24.4"/>
	<polygon class="st0" points="341.5,132.2 344.3,132.2 355.4,153.7 355.5,153.7 355.5,132.2 357.7,132.2 357.7,156.6 354.7,156.6 
		343.8,135.6 343.7,135.6 343.7,156.6 341.5,156.6 	"/>
	<polygon class="st0" points="367.1,132.2 370.5,132.2 378.5,153.7 386.6,132.2 389.7,132.2 389.7,156.6 387.5,156.6 387.5,134.6 
		387.4,134.6 379.4,156.6 377.6,156.6 369.3,134.6 369.3,134.6 369.3,156.6 367.1,156.6 	"/>
	<path class="st0" d="M407.9,131.8c6.6,0,9.7,6,9.7,12.6c-0.1,7.5-3.3,12.6-9.7,12.6c-6.3,0-9.6-5.1-9.7-12.6
		C398.1,137.8,401.3,131.8,407.9,131.8 M400.4,144.4c0,5.2,2.3,10.5,7.5,10.5s7.5-5.4,7.5-10.5s-2.3-10.5-7.5-10.5
		S400.4,139.3,400.4,144.4"/>
	<path class="st0" d="M426,132.2h5.2c3.6,0,7,1.3,7,6c0,3.1-1.3,5-4,5.6v0.1c2.8,0.6,4.7,2.6,4.7,5.8c0,5.3-3.9,7-8.5,7H426
		L426,132.2L426,132.2z M428.1,154.5h2.3c2.9,0,6.2-0.9,6.2-4.8c0-4.3-3.4-4.8-6.6-4.8h-1.9V154.5z M428.2,142.9h2.4
		c2.3,0,5.4-0.7,5.4-4.5c0-3.5-2.9-4-4.8-4h-3V142.9z"/>
	<rect x="447.5" y="132.2" class="st0" width="2.2" height="24.4"/>
	<polygon class="st0" points="458.9,132.2 461.1,132.2 461.1,154.5 469.9,154.5 469.9,156.6 458.9,156.6 	"/>
	<rect x="477" y="132.2" class="st0" width="2.2" height="24.4"/>
	<path class="st0" d="M495.2,132.2h2.5l8.7,24.4h-2.3l-2.4-6.5h-11.1l-2.4,6.5h-2.1L495.2,132.2z M496.3,134.5l-4.8,13.5h9.5
		L496.3,134.5z"/>
	<path class="st0" d="M513.7,132.2h5.7c3.9,0,6.5,1.9,6.5,6.3c0,3.1-2.2,5.2-4.9,5.6v0.1c1.8,0.2,2.1,1.3,2.8,2.9l3.7,9.4h-2.4
		l-3.2-8.2c-1.3-3.2-2.2-3.3-4.3-3.3h-1.8v11.5h-2.2V132.2z M515.9,143h2.3c2.5,0,5.5-1.1,5.5-4.5c0-4-2.5-4.2-5.5-4.2h-2.2V143z"/>
	<rect x="535" y="132.2" class="st0" width="2.2" height="24.4"/>
	<path class="st0" d="M553.2,132.2h2.5l8.7,24.4h-2.3l-2.4-6.5h-11.1l-2.4,6.5h-2.1L553.2,132.2z M554.3,134.5l-4.8,13.5h9.5
		L554.3,134.5z"/>
	<path class="st0" d="M134.9,52.9c-0.2,3.7-0.3,8.1-0.5,13.1c-0.2,4.9-0.3,9.1-0.3,12.3c0,5.2,0.1,11.1,0.3,17.5
		c0.2,6.4,0.2,10,0.2,10.7c-0.8,0-3.2,0.2-7.5,0.3c-4.2,0.2-8.3,0.3-12.3,0.3c-19.8,0-37.3-1.3-52.5-3.9
		c-15.1-2.6-28.2-7.2-39.4-13.8c-6.9-4-12.5-9-16.7-14.9C2.1,68.4,0,61.6,0,54c0-9.4,4-17.8,12-25.1c8-7.5,19.1-13.4,33.1-18
		c9.6-3.1,20.4-5.4,32.5-7c12.3-1.6,25-2.4,38.2-2.4c2.1,0,4,0,5.8,0.1h4.9l1.5,11.2h-4c-2.3-0.1-4.2-0.1-5.6-0.1
		c-12.7,0-24.4,0.7-34.9,2c-10.6,1.3-19.8,3.3-27.7,5.9C45,24.1,36.6,28.8,30.4,34.9c-6.1,6-9.1,12.5-9.1,19.3
		c0,8.6,3.2,15.8,9.5,21.4c6.4,5.6,14.6,10,24.7,13.2c9,2.8,18.5,4.9,28.4,6c10,1.1,20.4,1.7,31,1.7c0-0.8,0-4.8-0.1-12
		c-0.1-7.2-0.2-17.8-0.5-31.6L134.9,52.9L134.9,52.9z"/>
	<path class="st0" d="M49.6,81.4l-1.3-12.9h4.8l0.2,0.6c1.2,4,3.8,7,7.6,9.1c3.9,2.1,8.8,3.2,14.7,3.2c5.4,0,10-1.1,13.8-3.4
		c3.9-2.3,5.8-5,5.8-8.2c0-4-5-8.1-14.8-12.3l-9.4-4c-9.1-3.9-15.1-6.9-18-9c-2.8-2.2-4.2-4.8-4.2-7.8c0-4.5,3-8.2,8.9-11
		c5.9-2.8,13.7-4.2,23.4-4.2c7.6,0,15.3,0.8,23.2,2.5l2,11h-4.9l-0.3-0.6c-3.3-7-10.7-10.5-22.3-10.5c-5.2,0-9.5,1-12.9,2.9
		c-3.4,1.9-5.1,4.4-5.1,7.4c0,3.7,4.2,7.4,12.7,11L86.9,51c8.5,3.6,14,6.4,16.7,8.6c2.6,2.1,4,4.8,4,8c0,4.9-3.1,8.8-9.1,11.8
		c-6.1,2.9-14.2,4.4-24.5,4.4C65.3,83.8,57.3,83,49.6,81.4"/>
	<path class="st0" d="M114.6,34.1c0-5.5,4.5-10,10-10c5.5,0,10,4.5,10,10c0,5.5-4.5,10-10,10C119.1,44.1,114.6,39.6,114.6,34.1"/>
	<path class="st0" d="M222.8,76.7c0,4.6-0.7,8.9-2.1,12.7c-1.4,3.9-3.4,7.2-6,10.1c-2.6,2.8-5.6,5-9.3,6.6c-3.6,1.6-7.6,2.4-12,2.4
		c-4.2,0-8.4-0.6-12.6-1.8c-4.2-1.2-8.1-3-11.6-5.3l3.4-16.8c2.8,1.8,6,3.3,9.5,4.6c3.5,1.3,7.1,1.9,10.8,1.9c3.9,0,7.1-1.1,9.6-3.2
		c2.5-2.1,3.7-5.3,3.7-9.4c0-3.8-1.2-6.9-3.5-9.3c-2.3-2.4-6-4.9-10.8-7.5c-3.5-1.9-6.5-3.9-9.2-5.9c-2.7-2-4.9-4.3-6.7-6.8
		c-1.8-2.5-3.2-5.3-4.2-8.4c-1-3.1-1.5-6.6-1.5-10.4c0-9.6,2.5-17.1,7.4-22.2c4.9-5.2,11.5-7.8,19.7-7.8c4.2,0,8.1,0.5,11.7,1.6
		c3.5,1,7,2.7,10.3,5l-3.1,16.8c-2.8-1.8-5.6-3.2-8.7-4.3c-3-1.1-6.1-1.7-9.3-1.7c-3.5,0-6.2,0.9-8.4,2.6c-2.1,1.7-3.2,4.4-3.2,8.1
		c0,1.7,0.2,3.1,0.5,4.4c0.4,1.3,1,2.4,1.9,3.5c0.9,1.1,2.2,2.2,3.7,3.3c1.5,1.1,3.5,2.3,5.8,3.7c3.1,1.8,6.1,3.7,9,5.7
		c2.9,2,5.4,4.3,7.6,6.9c2.2,2.6,4,5.7,5.3,9.1C222.1,68.2,222.8,72.2,222.8,76.7"/>
	<path class="st0" d="M293.1,76.7c0,4.6-0.7,8.9-2.1,12.7c-1.4,3.9-3.4,7.2-6,10.1c-2.5,2.8-5.6,5-9.2,6.6c-3.6,1.6-7.6,2.4-12,2.4
		c-4.2,0-8.4-0.6-12.5-1.8c-4.2-1.2-8.1-3-11.6-5.3l3.4-16.8c2.8,1.8,6,3.3,9.5,4.6c3.5,1.3,7.1,1.9,10.8,1.9c3.9,0,7.1-1.1,9.6-3.2
		c2.5-2.1,3.7-5.3,3.7-9.4c0-3.8-1.2-6.9-3.5-9.3c-2.4-2.4-6-4.9-10.8-7.5c-3.5-1.9-6.5-3.9-9.2-5.9c-2.7-2-4.9-4.3-6.7-6.8
		c-1.8-2.5-3.2-5.3-4.2-8.4c-1-3.1-1.5-6.6-1.5-10.4c0-9.6,2.5-17.1,7.4-22.2c4.9-5.2,11.5-7.8,19.7-7.8c4.2,0,8.1,0.5,11.7,1.6
		c3.5,1,7,2.7,10.3,5l-3.1,16.8c-2.8-1.8-5.6-3.2-8.7-4.3c-3-1.1-6.1-1.7-9.3-1.7c-3.5,0-6.2,0.9-8.4,2.6c-2.1,1.7-3.2,4.4-3.2,8.1
		c0,1.7,0.2,3.1,0.5,4.4c0.4,1.3,1,2.4,1.9,3.5c0.9,1.1,2.2,2.2,3.7,3.3c1.5,1.1,3.5,2.3,5.8,3.7c3.1,1.8,6.1,3.7,9,5.7
		c2.9,2,5.4,4.3,7.6,6.9c2.2,2.6,4,5.7,5.3,9.1C292.4,68.2,293.1,72.2,293.1,76.7"/>
	<rect x="315.2" y="1.9" class="st0" width="16.5" height="104.7"/>
	<polygon class="st0" points="374.9,1.9 374.9,89.1 404.2,89.1 404.2,106.6 358.4,106.6 358.4,1.9 	"/>
	<polygon class="st0" points="463.3,1.9 480.5,1.9 454.1,106.6 435,106.6 408.6,1.9 425.9,1.9 444.6,84.2 	"/>
	<path class="st0" d="M563.7,106.6h-17.1l-5.5-22h-32.3l-5.5,22h-17.1L516,1.9h17.9L563.7,106.6z M525,19.5l-11.8,47.6h23.6
		L525,19.5z"/>
</g>
</svg>
