<?xml version="1.0" encoding="utf-8"?>
<!-- Generator: Adobe Illustrator 22.1.0, SVG Export Plug-In . SVG Version: 6.00 Build 0)  -->
<svg version="1.1" id="Capa_1" xmlns="http://www.w3.org/2000/svg" xmlns:xlink="http://www.w3.org/1999/xlink" x="0px" y="0px"
	 viewBox="0 0 200 200" style="enable-background:new 0 0 200 200;" xml:space="preserve">
<path d="M186.2,168.4l-76.9-135c-5.1-9-13.5-8.8-18.6,0.1L13.8,168.4c-5.1,9-1.3,15.9,8.5,15.9h155.6
	C187.5,184.4,191.3,177.5,186.2,168.4z M99.9,51.7c6.2,0,10.9,6.8,10.7,15.2l-2,50.4c-0.4,8.3-4.3,15.2-8.7,15.2
	c-4.4,0-8.4-6.8-8.7-15.2l-1.9-50.4C89,58.5,93.7,51.7,99.9,51.7z M99.9,170.3c-7.8,0-13.2-5.7-13.1-13.6c0-7.9,5.4-13.6,13.1-13.6
	c7.9,0,12.9,5.5,13.2,13.6C113.1,164.6,107.9,170.3,99.9,170.3z"/>
</svg>
