<?xml version="1.0" encoding="utf-8"?>
<!-- Generator: Adobe Illustrator 22.1.0, SVG Export Plug-In . SVG Version: 6.00 Build 0)  -->
<svg version="1.1" id="Capa_1" xmlns="http://www.w3.org/2000/svg" xmlns:xlink="http://www.w3.org/1999/xlink" x="0px" y="0px"
	 viewBox="0 0 200 200" style="enable-background:new 0 0 200 200;" xml:space="preserve">
<g>
	<path d="M159.9,27.7h-14.6v16.6c0,7-5.7,12.9-12.9,12.9s-12.9-5.7-12.9-12.9V27.7H80.8v16.6c0,7-5.7,12.9-12.9,12.9
		c-7.2,0-12.9-5.7-12.9-12.9V27.7H40.1c-8.3,0-15.1,6.8-15.1,15.1v130.7c0,8.3,6.8,15.1,15.1,15.1h119.7c8.3,0,15.1-6.8,15.1-15.1
		V42.7C175,34.4,168.2,27.7,159.9,27.7z M166.2,173.4c0,3.5-2.8,6.3-6.3,6.3H40.1c-3.5,0-6.3-2.8-6.3-6.3V84.5h132.6v88.9H166.2z"/>
	<path d="M67.9,50.6c3.5,0,6.3-2.8,6.3-6.3V17.8c0-3.5-2.8-6.3-6.3-6.3s-6.3,2.8-6.3,6.3v26.4C61.5,47.8,64.4,50.6,67.9,50.6z"/>
	<path d="M132.3,50.6c3.5,0,6.3-2.8,6.3-6.3V17.8c0-3.5-2.8-6.3-6.3-6.3s-6.3,2.8-6.3,6.3v26.4C126,47.8,128.8,50.6,132.3,50.6z"/>
	<path d="M76.8,162.9l16.2,3.3c4.6,0.9,9.4,0.9,14,0l16.2-3.3c2.8-0.7,4.8-3.3,4.6-6.3l-1.1-12c-0.9-8.1-6.3-14.9-13.5-17.3
		c-3.5,3.1-8.1,5-13.1,5s-9.6-2-13.1-5c-7.4,2.6-12.9,9.2-13.5,17.3l-1.1,12.2C71.8,159.7,74,162.5,76.8,162.9z"/>
	<path d="M92.8,126.4c2.2,1.1,4.6,1.7,7.2,1.7c2.6,0,5-0.7,7.2-1.7c4.8-2.6,8.1-7.6,8.1-13.5c0-8.5-7-15.3-15.3-15.3
		s-15.3,7-15.3,15.3C84.7,118.6,88,123.8,92.8,126.4z"/>
</g>
</svg>
