<?xml version="1.0" encoding="utf-8"?>
<!-- Generator: Adobe Illustrator 22.1.0, SVG Export Plug-In . SVG Version: 6.00 Build 0)  -->
<svg version="1.1" id="Capa_1" xmlns="http://www.w3.org/2000/svg" xmlns:xlink="http://www.w3.org/1999/xlink" x="0px" y="0px"
	 viewBox="0 0 200 200" style="enable-background:new 0 0 200 200;" xml:space="preserve">
<path d="M183,55.8h-55.3V33.6c0-3.1-2.5-5.5-5.5-5.5H77.9c-3.1,0-5.5,2.5-5.5,5.5v22.1H17c-3.1,0-5.5,2.5-5.5,5.5v24.9
	c0.3,14,11.8,25.1,25.8,24.9h46.1v-8.3c0-6.1,5-11.1,11.1-11.1h11.1c6.1,0,11.1,5,11.1,11.1v8.3h46.1c14,0.2,25.5-10.9,25.8-24.9
	V61.3C188.5,58.2,186,55.8,183,55.8z M116.6,55.8H83.4V39.2h33.2C116.6,39.2,116.6,55.8,116.6,55.8z M94.5,130.4
	c-3.1,0-5.5-2.5-5.5-5.5v-22.1c0-3.1,2.5-5.5,5.5-5.5h11.1c3.1,0,5.5,2.5,5.5,5.5v22.1c0,3.1-2.5,5.5-5.5,5.5H94.5z"/>
</svg>
