<?xml version="1.0" encoding="utf-8"?>
<!-- Generator: Adobe Illustrator 22.1.0, SVG Export Plug-In . SVG Version: 6.00 Build 0)  -->
<svg version="1.1" id="Capa_1" xmlns="http://www.w3.org/2000/svg" xmlns:xlink="http://www.w3.org/1999/xlink" x="0px" y="0px"
	 viewBox="0 0 200 200" style="enable-background:new 0 0 200 200;" xml:space="preserve">
<g>
	<path d="M156.1,163.7c-2.1,0-4,0.8-5.3,2.2c-1.4,1.4-2.2,3.3-2.2,5.3v11.9l19.4-19.4H156.1z"/>
	<g>
		<polygon points="46,33.1 147.5,33.1 147.5,11.5 26.6,11.5 26.6,160.4 46,160.4 		"/>
	</g>
	<path d="M52.5,39.6v148.9h89.6v-17.3c0-7.7,6.3-14,14-14h17.3V39.6H52.5z M70.9,71.9c0-1.8,1.5-3.2,3.2-3.2h17.3
		c1.8,0,3.2,1.5,3.2,3.2c0,1.8-1.5,3.2-3.2,3.2H74.1C72.3,75.2,70.9,73.7,70.9,71.9z M141,118.3H84.9c-1.8,0-3.2-1.5-3.2-3.2
		c0-1.8,1.5-3.2,3.2-3.2H141c1.8,0,3.2,1.5,3.2,3.2C144.3,116.9,142.8,118.3,141,118.3z M141,96.8H84.9c-1.8,0-3.2-1.5-3.2-3.2
		c0-1.8,1.5-3.2,3.2-3.2H141c1.8,0,3.2,1.5,3.2,3.2C144.3,95.3,142.8,96.8,141,96.8z"/>
</g>
</svg>
