<?xml version="1.0" encoding="utf-8"?>
<!-- Generator: Adobe Illustrator 22.1.0, SVG Export Plug-In . SVG Version: 6.00 Build 0)  -->
<svg version="1.1" id="Capa_6" xmlns="http://www.w3.org/2000/svg" xmlns:xlink="http://www.w3.org/1999/xlink" x="0px" y="0px"
	 viewBox="0 0 200 200" style="enable-background:new 0 0 200 200;" xml:space="preserve">
<g>
	<path d="M183.5,160.7c-5.2,0-10.3,0-15.5,0c-12.1,0-24.2,0-36.2,0c-13.8,0-27.7,0-41.5,0c-10.4,0-20.9,0-31.3,0c-2,0-4,0-6,0
		c-0.8-2.5-2.1-4.8-3.7-6.9c-3.2-4.1-8.2-6.6-13.2-7.2c-0.8-0.1-1.5-0.1-2.3-0.2c0,0,0,0-0.1,0c-5.3,0-10.3,2.1-14.1,5.7
		c-3.8,3.6-5.9,8.7-6.1,13.9c-0.2,5.3,1.9,10.4,5.3,14.3c3.5,3.9,8.5,6.1,13.7,6.5c5.3,0.4,10.5-1.6,14.5-4.9c2.9-2.4,4.9-5.7,6-9.3
		c4.7,0,9.3,0,14,0c12.1,0,24.2,0,36.2,0c13.8,0,27.7,0,41.5,0c10.4,0,20.9,0,31.3,0c2.5,0,5,0,7.6,0c3.2,0,5.9-2.7,5.9-5.9
		C189.5,163.3,186.8,160.7,183.5,160.7z"/>
	<path d="M183.5,94.1c-10.2,0-20.4,0-30.6,0c-0.8-2.5-2.1-4.8-3.7-6.9c-3.2-4.1-8.2-6.6-13.2-7.2c-0.8-0.1-1.5-0.1-2.3-0.2
		c0,0,0,0,0,0c-5.3,0-10.3,2.1-14.1,5.7c-2.5,2.4-4.2,5.3-5.2,8.6c-6.1,0-12.3,0-18.4,0c-13.4,0-26.8,0-40.3,0
		c-11.2,0-22.4,0-33.5,0c-1.9,0-3.8,0-5.7,0c-3.2,0-5.9,2.7-5.9,5.9s2.7,5.9,5.9,5.9c6.5,0,13,0,19.5,0c13.4,0,26.8,0,40.3,0
		c11.2,0,22.4,0,33.5,0c1.5,0,3,0,4.5,0c0.9,2.9,2.4,5.5,4.5,7.8c3.5,3.9,8.5,6.1,13.7,6.5c5.3,0.4,10.5-1.6,14.5-4.9
		c2.9-2.4,4.9-5.7,6-9.3c9.8,0,19.7,0,29.5,0c0.4,0,0.8,0,1.2,0c3.2,0,5.9-2.7,5.9-5.9C189.5,96.8,186.8,94.1,183.5,94.1z"/>
	<path d="M183.5,27.5c-6.7,0-13.4,0-20.1,0c-13.5,0-27,0-40.5,0c-10.5,0-21,0-31.4,0c-0.7,0-1.4,0-2.2,0c-0.8-2.5-2.1-4.8-3.7-6.9
		c-3.2-4.1-8.2-6.6-13.2-7.2c-0.8-0.1-1.6-0.2-2.3-0.2c0,0,0,0,0,0c-5.3,0-10.3,2.1-14.1,5.7c-2.5,2.4-4.2,5.3-5.2,8.6
		c-10.2,0-20.3,0-30.5,0c-1.3,0-2.5,0-3.8,0c-3.2,0-5.9,2.7-5.9,5.9c0,3.2,2.7,5.9,5.9,5.9c10.5,0,21.1,0,31.6,0c0.9,0,1.8,0,2.6,0
		c0.9,2.9,2.4,5.5,4.5,7.8c3.5,3.9,8.5,6.1,13.7,6.5c5.3,0.4,10.5-1.6,14.5-4.9c2.9-2.4,4.9-5.7,6-9.3c6.3,0,12.6,0,18.8,0
		c13.5,0,27,0,40.5,0c10.5,0,21,0,31.4,0c1.1,0,2.3,0,3.4,0c3.2,0,5.9-2.7,5.9-5.9C189.5,30.2,186.8,27.5,183.5,27.5z"/>
</g>
</svg>
