<?xml version="1.0" encoding="utf-8"?>
<!-- Generator: Adobe Illustrator 22.1.0, SVG Export Plug-In . SVG Version: 6.00 Build 0)  -->
<svg version="1.1" id="Capa_1" xmlns="http://www.w3.org/2000/svg" xmlns:xlink="http://www.w3.org/1999/xlink" x="0px" y="0px"
	 viewBox="0 0 200 200" style="enable-background:new 0 0 200 200;" xml:space="preserve">
<g>
	<g transform="translate(-4.000000, -8.000000)">
		<path d="M84.8,145.6v42.3H39.5c-3.7,0-6.7-3-6.7-6.7v-74.1c0-2.1,1-4.1,2.7-5.4l65.4-49.7c2.4-1.8,5.7-1.8,8.1,0l65.4,49.7
			c1.7,1.3,2.7,3.3,2.7,5.4v74.1c0,3.7-3,6.7-6.7,6.7h-49.1v-42.3H84.8z M155,30.5h17.3c1.1,0,1.9,0.9,1.9,1.9v35.5
			c0,1.1-0.9,1.9-1.9,1.9c-0.4,0-0.8-0.1-1.2-0.4l-17.3-13.3c-0.5-0.4-0.8-0.9-0.8-1.5V32.4C153.1,31.3,153.9,30.5,155,30.5z
			 M23.2,99.7c-2.1,1.6-5.1,1.2-6.7-1c-1.6-2.1-1.2-5.1,1-6.7l83.5-62.6c2.4-1.8,5.7-1.8,8.1,0l81.6,62.6c2.1,1.6,2.5,4.6,0.9,6.7
			c-1.6,2.1-4.6,2.5-6.7,0.9l-79.8-61.3L23.2,99.7z"/>
	</g>
</g>
</svg>
