<?xml version="1.0" encoding="utf-8"?>
<!-- Generator: Adobe Illustrator 22.1.0, SVG Export Plug-In . SVG Version: 6.00 Build 0)  -->
<svg version="1.1" id="Capa_4" xmlns="http://www.w3.org/2000/svg" xmlns:xlink="http://www.w3.org/1999/xlink" x="0px" y="0px"
	 viewBox="0 0 200 200" style="enable-background:new 0 0 200 200;" xml:space="preserve">
<g>
	<path d="M99.9,53.6c-25.5,0-46.1,20.7-46.1,46.1s20.7,46.1,46.1,46.1s46.1-20.7,46.1-46.1S125.4,53.6,99.9,53.6
		C99.9,53.6,99.9,53.6,99.9,53.6z M99.9,129.8c-16.6,0-30-13.4-30-30s13.4-30,30-30s30,13.4,30,30S116.5,129.8,99.9,129.8
		L99.9,129.8z"/>
	<circle cx="147.9" cy="51.9" r="10.8"/>
	<path d="M185.1,41c-4.7-12.1-14.2-21.6-26.3-26.3c-7-2.6-14.4-4-21.8-4.2c-9.6-0.4-12.6-0.5-37-0.5s-27.5,0-37,0.5
		c-7.5,0.2-14.8,1.6-21.8,4.2C29.1,19.4,19.6,28.9,14.9,41c-2.6,7-4,14.4-4.2,21.8c-0.4,9.6-0.5,12.6-0.5,37s0,27.5,0.5,37
		c0.2,7.5,1.6,14.8,4.2,21.8c4.7,12.1,14.2,21.6,26.3,26.3c7,2.7,14.3,4.2,21.8,4.5c9.6,0.4,12.6,0.5,37,0.5s27.5,0,37-0.5
		c7.5-0.2,14.8-1.6,21.8-4.2c12.1-4.7,21.6-14.2,26.3-26.3c2.6-7,4-14.4,4.2-21.8c0.4-9.6,0.5-12.6,0.5-37s0-27.5-0.5-37
		C189.2,55.6,187.8,48.1,185.1,41z M172.9,136.1c-0.1,5.8-1.1,11.4-3.1,16.8c-3,7.9-9.2,14.1-17.1,17.1c-5.3,2-11,3-16.7,3.1
		c-9.5,0.4-12.2,0.5-36.5,0.5s-26.8,0-36.5-0.5c-5.7-0.1-11.3-1.1-16.7-3.1c-7.9-3-14.1-9.2-17.1-17.1c-2-5.3-3-11-3.1-16.7
		c-0.4-9.5-0.5-12.2-0.5-36.5s0-26.8,0.5-36.5c0.1-5.8,1.1-11.4,3.1-16.8c3-7.9,9.3-14.1,17.1-17.1c5.3-2,11-3,16.7-3.1
		c9.5-0.4,12.2-0.5,36.5-0.5s26.8,0,36.5,0.5c5.7,0.1,11.3,1.1,16.7,3.1c7.9,3,14.1,9.2,17.1,17.1c2,5.3,3,11,3.1,16.7
		c0.4,9.5,0.5,12.2,0.5,36.5s0,26.9-0.4,36.5H172.9z"/>
</g>
</svg>
