<?xml version="1.0" encoding="utf-8"?>
<!-- Generator: Adobe Illustrator 22.1.0, SVG Export Plug-In . SVG Version: 6.00 Build 0)  -->
<svg version="1.1" id="Capa_1" xmlns="http://www.w3.org/2000/svg" xmlns:xlink="http://www.w3.org/1999/xlink" x="0px" y="0px"
	 viewBox="0 0 200 200" style="enable-background:new 0 0 200 200;" xml:space="preserve">
<g>
	<path d="M100.1,188.5c13.6,0,24.4-11,24.6-24.6H75.5C75.7,177.5,86.5,188.5,100.1,188.5z"/>
	<path d="M167.3,128.3l-15.7-25.5c-2.6-4.3-3.9-9.1-3.9-14.2V78.4c0-21.4-13.6-41.2-33.9-47.3v-5.8c0-7.6-6.1-13.8-13.8-13.8
		s-13.8,6.1-13.8,13.8v5.8c-19.6,6-33.9,24-33.9,45.5v12.1c0,5-1.3,9.9-3.9,14.2l-15.7,25.5c-3,4.8-3.2,10.8-0.4,15.8
		c2.8,5,8,8,13.6,8h107.7c5.8,0,10.8-3,13.6-8C170.3,139.1,170.3,133.2,167.3,128.3z"/>
</g>
</svg>
