<?xml version="1.0" encoding="utf-8"?>
<!-- Generator: Adobe Illustrator 22.1.0, SVG Export Plug-In . SVG Version: 6.00 Build 0)  -->
<svg version="1.1" id="Capa_1" xmlns="http://www.w3.org/2000/svg" xmlns:xlink="http://www.w3.org/1999/xlink" x="0px" y="0px"
	 viewBox="0 0 200 200" style="enable-background:new 0 0 200 200;" xml:space="preserve">
<path d="M188.5,78.3c0-0.3,0-0.5-0.1-0.8V16.1c0-2.5-2-4.6-4.6-4.6h-31.1c-2.5,0-4.6,2-4.6,4.6s2,4.6,4.6,4.6h26.5v53.1h-70.6
	c-2.5,0-4.6,2-4.6,4.6c0,2.5,2,4.6,4.6,4.6h70.6v96.3H82.9v-20.9c0-2.5-2-4.6-4.6-4.6c-2.5,0-4.6,2-4.6,4.6v20.9H20.7v-74.7h53.1
	V122c0,2.5,2,4.6,4.6,4.6c2.5,0,4.6-2,4.6-4.6V78.3c0-2.5-2-4.6-4.6-4.6c-2.5,0-4.6,2-4.6,4.6v17H20.7V20.7h53.1v21.1
	c0,2.5,2,4.6,4.6,4.6c2.5,0,4.6-2,4.6-4.6V20.7h38.7c2.5,0,4.6-2,4.6-4.6s-2-4.6-4.6-4.6H16.1c-2.5,0-4.6,2-4.6,4.6v167.8
	c0,2.5,2,4.6,4.6,4.6h61.5c0.3,0,0.5,0.1,0.8,0.1c0.3,0,0.5,0,0.8-0.1h104.8c2.5,0,4.6-2.1,4.5-4.6V79.1
	C188.4,78.8,188.5,78.6,188.5,78.3z"/>
</svg>
