<?xml version="1.0" encoding="utf-8"?>
<!-- Generator: Adobe Illustrator 22.1.0, SVG Export Plug-In . SVG Version: 6.00 Build 0)  -->
<svg version="1.1" id="Capa_1" xmlns="http://www.w3.org/2000/svg" xmlns:xlink="http://www.w3.org/1999/xlink" x="0px" y="0px"
	 viewBox="0 0 200 200" style="enable-background:new 0 0 200 200;" xml:space="preserve">
<path d="M184.1,164l-39.9-40c18.6-28.1,15.6-66.5-9.1-91.2c-28.3-28.3-74.3-28.3-102.4,0C4.4,61,4.4,107,32.7,135.1
	c24.8,24.8,63.1,27.7,91.2,9.1l40,40c5.6,5.6,14.7,5.6,20.3,0C189.9,178.7,189.9,169.6,184.1,164z M52.9,114.9
	c-17.1-17.1-17.1-44.9,0-62c17.1-17.1,44.9-17.1,62,0c17.1,17.1,17.1,44.9,0,62C97.7,132,70,132,52.9,114.9z"/>
</svg>
