<?xml version="1.0" encoding="utf-8"?>
<!-- Generator: Adobe Illustrator 22.1.0, SVG Export Plug-In . SVG Version: 6.00 Build 0)  -->
<svg version="1.1" id="Capa_1" xmlns="http://www.w3.org/2000/svg" xmlns:xlink="http://www.w3.org/1999/xlink" x="0px" y="0px"
	 viewBox="0 0 200 200" style="enable-background:new 0 0 200 200;" xml:space="preserve">
<g>
	<path d="M159.3,121.5c-3-3-7.9-3-10.9,0L100,169.9l-48.4-48.4c-3-3-7.9-3-10.9,0c-3,3-3,7.9,0,10.9l53.9,53.9
		c1.5,1.5,3.5,2.3,5.4,2.3s3.9-0.8,5.4-2.3l53.9-53.9C162.3,129.4,162.3,124.5,159.3,121.5z"/>
	<path d="M159.3,78.5c-3,3-7.9,3-10.9,0L100,30.1L51.6,78.5c-3,3-7.9,3-10.9,0c-3-3-3-7.9,0-10.9l53.9-53.9c1.5-1.5,3.5-2.3,5.4-2.3
		s3.9,0.8,5.4,2.3l53.9,53.9C162.3,70.6,162.3,75.5,159.3,78.5z"/>
</g>
</svg>
