<?xml version="1.0" encoding="utf-8"?>
<!-- Generator: Adobe Illustrator 22.1.0, SVG Export Plug-In . SVG Version: 6.00 Build 0)  -->
<svg version="1.1" id="Capa_1" xmlns="http://www.w3.org/2000/svg" xmlns:xlink="http://www.w3.org/1999/xlink" x="0px" y="0px"
	 viewBox="0 0 200 200" style="enable-background:new 0 0 200 200;" xml:space="preserve">
<g transform="translate(0,-952.36218)">
	<path d="M100,963.9c-48.8,0-88.5,39.7-88.5,88.5c0,48.8,39.7,88.5,88.5,88.5c48.8,0,88.5-39.7,88.5-88.5
		C188.5,1003.6,148.8,963.9,100,963.9z M100,982.8c38.5,0,69.5,31,69.5,69.5c0,38.5-31,69.5-69.5,69.5c-38.5,0-69.5-31-69.5-69.5
		C30.5,1013.8,61.5,982.8,100,982.8L100,982.8z M100,998.6c-5.2,0-9.5,4.2-9.5,9.5v44.3c0,3.5,1.9,6.6,4.7,8.2l32.9,19
		c4.5,2.6,10.3,1.1,12.9-3.5c2.6-4.5,1.1-10.3-3.5-12.9l-28.1-16.2v-38.8C109.5,1002.9,105.2,998.6,100,998.6z"/>
</g>
</svg>
