<?xml version="1.0" encoding="utf-8"?>
<!-- Generator: Adobe Illustrator 22.1.0, SVG Export Plug-In . SVG Version: 6.00 Build 0)  -->
<svg version="1.1" id="Capa_1" xmlns="http://www.w3.org/2000/svg" xmlns:xlink="http://www.w3.org/1999/xlink" x="0px" y="0px"
	 viewBox="0 0 200 200" style="enable-background:new 0 0 200 200;" xml:space="preserve">
<style type="text/css">
	.st0{fill:#010101;}
</style>
<g>
	<path class="st0" d="M108.6,18.3c-0.2,0-0.4,0-0.5,0c-4.7,0-8,3.8-8,8.5c0,4.6,1.8,8.4,8.9,8.5l0,0c33.6,0.5,63,29.2,63,64.4
		c0,35.5-29.2,64.9-64.7,64.9c-33.9,0-62.1-25.6-64.6-59.2h15L34.6,67l-23.1,38.4h14.2c2.5,42.5,38,76.2,81.3,76.2
		c44.9,0,81.5-36.7,81.5-81.7C188.5,55.6,152.8,19.2,108.6,18.3z"/>
</g>
</svg>
