<?xml version="1.0" encoding="utf-8"?>
<!-- Generator: Adobe Illustrator 22.1.0, SVG Export Plug-In . SVG Version: 6.00 Build 0)  -->
<svg version="1.1" id="Capa_1" xmlns="http://www.w3.org/2000/svg" xmlns:xlink="http://www.w3.org/1999/xlink" x="0px" y="0px"
	 viewBox="0 0 200 200" style="enable-background:new 0 0 200 200;" xml:space="preserve">
<path d="M176.7,127.3c-12.4-21.1-33.9-23.1-33.9-23.1h-18.1c-7.4,4.2-15.7,6.8-24.9,6.8c-9.2,0-17.5-2.4-24.9-6.8H56.8
	c0,0-21.5,2-33.9,23.1c-12,21.1-9.8,42.3-9.8,42.3s18.9,18.9,87.1,18.9c68.2,0,86.7-18.9,86.7-18.9S189.1,148.4,176.7,127.3z
	 M100,92.8c22.5,0,40.7-18.1,40.7-40.7c0-22.5-18.1-40.7-40.7-40.7c-22.5,0-40.7,18.3-40.7,40.7C59.3,74.7,77.5,92.8,100,92.8z"/>
</svg>
