<?xml version="1.0" encoding="utf-8"?>
<!-- Generator: Adobe Illustrator 22.1.0, SVG Export Plug-In . SVG Version: 6.00 Build 0)  -->
<svg version="1.1" id="Capa_3" xmlns="http://www.w3.org/2000/svg" xmlns:xlink="http://www.w3.org/1999/xlink" x="0px" y="0px"
	 viewBox="0 0 200 200" style="enable-background:new 0 0 200 200;" xml:space="preserve">
<path d="M185.6,57.5c-2-7.7-8.1-13.7-15.8-15.8C155.9,38,100,38,100,38s-55.8,0-69.8,3.7c-7.7,2-13.7,8.1-15.8,15.8
	c-3.7,13.9-3.7,43-3.7,43s0,29.1,3.7,43c2,7.7,8.1,13.7,15.8,15.8C44.2,163,100,163,100,163s55.9,0,69.8-3.7
	c7.7-2,13.7-8.1,15.8-15.8c3.7-13.9,3.7-43,3.7-43S189.3,71.4,185.6,57.5z M82.2,127.3V73.7l46.4,26.8L82.2,127.3z"/>
</svg>
