<?xml version="1.0" encoding="utf-8"?>
<!-- Generator: Adobe Illustrator 22.1.0, SVG Export Plug-In . SVG Version: 6.00 Build 0)  -->
<svg version="1.1" id="Capa_1" xmlns="http://www.w3.org/2000/svg" xmlns:xlink="http://www.w3.org/1999/xlink" x="0px" y="0px"
	 viewBox="0 0 200 200" style="enable-background:new 0 0 200 200;" xml:space="preserve">
<g>
	<rect x="142.3" y="26.5" transform="matrix(0.7071 -0.7071 0.7071 0.7071 7.0146 119.9617)" width="12" height="50.1"/>
	<rect x="31.5" y="81" transform="matrix(0.7072 -0.707 0.707 0.7072 -47.5307 97.4171)" width="124.7" height="50.1"/>
	<path d="M184.2,51.5c5.7-5.7,5.7-14.8,0-20.5l-14.8-14.8c-5.7-5.7-15.4-5.7-20.5,0l-7.4,7.4l35.9,35.9L184.2,51.5z"/>
	<path d="M11.7,182.4c-0.6,1.7,0,3.4,1.1,4.6c0.6,0.6,1.7,1.1,2.8,1.1c0.6,0,1.1,0,1.7,0l42.7-15.4l-33-33L11.7,182.4z"/>
</g>
</svg>
