<?xml version="1.0" encoding="utf-8"?>
<!-- Generator: Adobe Illustrator 22.1.0, SVG Export Plug-In . SVG Version: 6.00 Build 0)  -->
<svg version="1.1" id="Capa_1" xmlns="http://www.w3.org/2000/svg" xmlns:xlink="http://www.w3.org/1999/xlink" x="0px" y="0px"
	 viewBox="0 0 200 200" style="enable-background:new 0 0 200 200;" xml:space="preserve">
<g>
	<path d="M69.5,23.2c20.3,0,40.7,0,61,0c0.2,0.1,0.4,0.2,0.6,0.2c9.9,1.7,16.1,9,16.1,19c0,6.8,0,13.5,0,20.3c0,0.6,0,1.1,0,1.8
		c0.8,0,1.4,0,2,0c5.4,0,10.8,0,16.2,0c1.5,0,3.1,0,4.5,0.3c11,2,18.5,10.9,18.5,22.1c0,16.5,0,33,0,49.6c0,1.2,0,2.3-0.2,3.4
		c-1.9,11.3-10.7,18.8-22.2,18.9c-5.7,0.1-11.3,0-17,0c-0.6,0-1.2,0-1.7,0c-1.1,8.6-5.3,14.3-13.5,17c-1.1,0.3-2.2,0.5-3.3,0.8
		c-20.3,0-40.7,0-61,0c-0.3-0.1-0.6-0.2-0.9-0.3c-7.6-1.1-13.7-6.7-15.4-14.2c-0.2-1.1-0.4-2.1-0.6-3.3c-0.9,0-1.6,0-2.3,0
		c-6.1,0-12.3,0.2-18.4-0.1c-11.2-0.6-20.3-10-20.4-21.3c-0.1-17.2-0.1-34.4,0-51.6c0.1-11.2,9.1-20.7,20.4-21.3
		c6.3-0.3,12.6-0.1,18.9-0.1c0.6,0,1.2,0,2,0c0-0.7,0-1.3,0-1.9c0-7.1-0.1-14.3,0-21.4C53,33,58.8,25.8,66.9,23.8
		C67.8,23.6,68.6,23.4,69.5,23.2z M52.8,147.2c0-2.6,0-5.1,0-7.5c0-6.2,4-10.2,10.2-10.2c24.6,0,49.3,0,73.9,0
		c6.2,0,10.2,4,10.2,10.2c0,2.4,0,4.9,0,7.5c6.4,0,12.6,0,18.9,0c6.1,0,10.5-4.4,10.6-10.5c0-0.1,0-0.2,0-0.3c0-16.4,0-32.8,0-49.2
		c0-6.2-4.4-10.8-10.3-10.8c-44.2,0-88.4,0-132.6,0c-5.8,0-10.4,4.3-10.4,10.2c-0.1,16.8-0.1,33.7,0,50.5c0,5.7,4.6,10.1,10.3,10.1
		c5,0,10.1,0,15.1,0C50.1,147.2,51.4,147.2,52.8,147.2z M64.6,64.4c23.7,0,47.2,0,70.8,0c0-7.3,0-14.5,0-21.7c0-5-2.6-7.5-7.6-7.5
		c-12.6,0-25.3,0-37.9,0c-6.2,0-12.4,0-18.6,0c-3.8,0-6.5,2.6-6.7,6.4c-0.1,1.1,0,2.2,0,3.3C64.6,51.3,64.6,57.8,64.6,64.4z
		 M135.3,141.4c-23.7,0-47.1,0-70.6,0c0,0.5-0.1,0.9-0.1,1.4c0,5,0,10.1,0,15.1c0,4.4,2.7,7,7.1,7c18.9,0,37.7,0,56.6,0
		c4.4,0,7-2.7,7.1-7.1c0-5,0-10.1,0-15.1C135.4,142.3,135.4,141.9,135.3,141.4z"/>
	<path d="M52.7,87.1c2,0,4,0,6,0c3.3,0.1,5.8,2.6,5.8,5.8c0,3.2-2.3,5.9-5.6,6c-4.1,0.1-8.3,0.1-12.4,0c-3.2-0.1-5.6-2.7-5.6-5.9
		c0-3.2,2.6-5.8,5.8-5.8C48.7,87.1,50.7,87.1,52.7,87.1z"/>
</g>
</svg>
