<?xml version="1.0" encoding="utf-8"?>
<!-- Generator: Adobe Illustrator 24.0.1, SVG Export Plug-In . SVG Version: 6.00 Build 0)  -->
<svg version="1.1" id="Capa_1" xmlns="http://www.w3.org/2000/svg" xmlns:xlink="http://www.w3.org/1999/xlink" x="0px" y="0px"
	 viewBox="0 0 200 200" style="enable-background:new 0 0 200 200;" xml:space="preserve">
<g>
	<path d="M99.94,89.5c14.03,0,28.05-0.01,42.08,0.01c4.78,0.01,7.93,4.18,6.38,8.46c-0.9,2.5-2.77,3.88-5.39,4.24
		c-0.41,0.06-0.82,0.03-1.24,0.03c-27.87,0-55.75-0.01-83.62,0.01c-2.77,0-4.96-0.96-6.29-3.45c-2.28-4.3,0.81-9.27,5.82-9.29
		c9.55-0.04,19.09-0.01,28.64-0.01C90.87,89.5,95.4,89.5,99.94,89.5z"/>
	<path d="M99.94,123.47c14.03,0,28.05-0.01,42.08,0.01c4.78,0.01,7.93,4.18,6.39,8.46c-0.9,2.5-2.77,3.88-5.39,4.24
		c-0.41,0.06-0.82,0.03-1.24,0.03c-27.87,0-55.75-0.01-83.62,0.01c-2.77,0-4.96-0.96-6.29-3.45c-2.29-4.3,0.81-9.27,5.82-9.29
		c9.55-0.04,19.09-0.01,28.64-0.01C90.86,123.47,95.4,123.47,99.94,123.47z"/>
	<path d="M99.96,170.17c-14.03,0-28.05,0.01-42.08-0.01c-4.78-0.01-7.93-4.19-6.38-8.47c0.93-2.57,2.85-3.96,5.56-4.24
		c0.64-0.06,1.3-0.02,1.94-0.02c27.4,0,54.8,0,82.21,0c0.82,0,1.67-0.03,2.46,0.13c3.23,0.66,5.4,3.65,5.07,6.88
		c-0.34,3.3-3.03,5.7-6.53,5.71C128.13,170.18,114.05,170.17,99.96,170.17z"/>
	<path d="M92.66,57.44c3.99-4.55,7.91-9.01,11.83-13.48c4.66-5.32,9.32-10.64,13.98-15.96c1.71-1.95,3.89-2.68,6.38-2.06
		c2.4,0.6,4.05,2.16,4.65,4.61c0.52,2.14,0.04,4.12-1.41,5.78c-9.88,11.32-19.77,22.64-29.7,33.93c-2.25,2.55-5.9,2.92-8.65,0.9
		c-5.69-4.19-11.35-8.44-16.97-12.73c-2.78-2.12-3.35-6.17-1.38-8.86c2.02-2.76,6.11-3.4,9.01-1.29c3.48,2.52,6.89,5.15,10.33,7.73
		C91.34,56.47,91.96,56.92,92.66,57.44z"/>
	<path d="M158.98,0.44H41.09c-8.48,0-15.36,6.88-15.36,15.36v168.84c0,8.48,6.88,15.36,15.36,15.36h117.89
		c8.48,0,15.36-6.88,15.36-15.36V15.8C174.34,7.32,167.46,0.44,158.98,0.44z M161.51,183.79c0,2.94-0.42,3.36-3.37,3.36
		c-38.8,0-77.6,0-116.39,0c-2.95,0-3.36-0.41-3.36-3.37c0-55.78,0-111.56,0-167.34c0-2.95,0.4-3.35,3.36-3.35
		c38.8,0,77.6,0,116.39,0c2.95,0,3.36,0.41,3.36,3.36c0,27.95,0,55.9,0,83.85C161.52,128.13,161.52,155.96,161.51,183.79z"/>
</g>
</svg>
